<svg id="logoCow_Black" xmlns="http://www.w3.org/2000/svg" width="512" height="512" viewBox="0 0 512 512">
  <path id="Path_1" data-name="Path 1" d="M241,303.7A116.182,116.182,0,0,1,225.7,361c-28.579,52.121-74.7,30.8-74.7,90,0,33,27,61,60,61h90c32.813,0,60-27.8,60-61,0-59.121-46-37.657-74.7-90A116.174,116.174,0,0,1,271,303.7a228.528,228.528,0,0,1,71.4-166.8c-36.3-15.3-82.8-19.8-133.5-12.3a134.92,134.92,0,0,0-39.6,12A229.341,229.341,0,0,1,241,303.7ZM241,466H211V436h30Zm30-30h30v30H271Z" fill="#73bcc8"/>
  <path id="Path_2" data-name="Path 2" d="M402.724,140.81c25.547,23.7,40.983,54.553,45.91,90.4,46.307-23.452,51.33-74.347,63.366-102.9C504.419,127.479,456.03,98.7,402.724,140.81Z" fill="#6c82bc"/>
  <path id="Path_3" data-name="Path 3" d="M62.99,235.1c4.658-34.629,20.845-66.3,45.286-91C55.412,103.846,6.982,131.746,0,132.528,11.675,160.167,17.108,211.448,62.99,235.1Z" fill="#6c82bc"/>
  <path id="Path_4" data-name="Path 4" d="M420.575,96.955a190.887,190.887,0,0,0,1.509-52.976L417.265.088,394.443,37.709a412.8,412.8,0,0,1-52.575,67.253,194.5,194.5,0,0,1,35.986,17.26C381.892,119.452,394.738,106.683,420.575,96.955Z" fill="#6c82bc"/>
  <path id="Path_5" data-name="Path 5" d="M131.975,124.444a166.5,166.5,0,0,1,41.18-21.634,414.29,414.29,0,0,1-50.339-65.043L99.877,0l-4.7,44.081A190.885,190.885,0,0,0,98.6,104.339C119.927,113.728,128.348,122.015,131.975,124.444Z" fill="#6c82bc"/>
  <path id="Path_6" data-name="Path 6" d="M370,152.5c-41.847,35.75-69,91.7-69,151.2,0,28.347,11.829,53.752,42.261,70.369A140.1,140.1,0,0,1,362.938,386.6c.308.114.848-.005,1.062.2a43.127,43.127,0,0,1,9.9-15.6A163.5,163.5,0,0,0,421,256c0-39.6-14.4-72.9-41.7-96.3a70.32,70.32,0,0,0-9.3-7.2ZM376,286H346V256h30Z" fill="#6c82bc"/>
  <path id="Path_7" data-name="Path 7" d="M211,303.7c0-57.4-25.448-113.577-68.7-150.6-30.6,24-50.4,60.3-51.3,99.3a163.114,163.114,0,0,0,47.4,119.1,45.477,45.477,0,0,1,9.6,15.3C160.858,374.26,211,366.017,211,303.7ZM136,286V256h30v30Z" fill="#6c82bc"/>
</svg>
